<?xml version="1.0" encoding="UTF-8"?>
<!DOCTYPE svg PUBLIC "-//W3C//DTD SVG 1.1//EN" "http://www.w3.org/Graphics/SVG/1.1/DTD/svg11.dtd">
<!-- Creator: CorelDRAW X6 -->
<svg xmlns="http://www.w3.org/2000/svg" xml:space="preserve" width="100%" height="100%" version="1.1" style="shape-rendering:geometricPrecision; text-rendering:geometricPrecision; image-rendering:optimizeQuality; fill-rule:evenodd; clip-rule:evenodd"
viewBox="0 0 500 500"
 xmlns:xlink="http://www.w3.org/1999/xlink">
 <defs>
  <style type="text/css">
   <![CDATA[

    .str1 {stroke:#656565;stroke-width:0.762}
    .str2 {stroke:#303030;stroke-width:2.5}
    .str3 {stroke:#303030;stroke-width:8.827;stroke-linecap:round}
    .fil9 {fill:none}
    .fil7 {fill:#006DB6}
    .fil10 {fill:#303030}
    .fil14 {fill:#333333}
    .fil3 {fill:#5DBEFF}
    .fil6 {fill:#656565}
    .fil15 {fill:#B5DA74}
    .fil8 {fill:#D8D8D8}
    .fil16 {fill:#ED2F00}
    .fil5 {fill:#F2F2F2}
    .fil4 {fill:#F8F8F8}
   .fil2 {fill:url(#id0)}
    .fil18 {fill:url(#id1)}
    .fil12 {fill:url(#id2)}
    .fil19 {fill:url(#id3)}
    .fil13 {fill:url(#id4)}
    .fil20 {fill:url(#id5)}
    .fil1 {fill:url(#id6)}
    .fil17 {fill:url(#id7)}
    .fil11 {fill:url(#id8)}
   ]]>
  </style>
  <linearGradient id="id0" gradientUnits="userSpaceOnUse" x1="252.026" y1="95.592" x2="252.026" y2="439.722">
   <stop offset="0" style="stop-color:#0081D8"/>
   <stop offset="1" style="stop-color:#17A2FF"/>
  </linearGradient>
  <linearGradient id="id1" gradientUnits="userSpaceOnUse" x1="388.208" y1="96.14" x2="442.474" y2="90.242">
   <stop offset="0" style="stop-color:#0083DB"/>
   <stop offset="1" style="stop-color:#5DBEFF"/>
  </linearGradient>
  <linearGradient id="id2" gradientUnits="userSpaceOnUse" xlink:href="#id1" x1="115.844" y1="96.14" x2="61.578" y2="90.242">
  </linearGradient>
  <linearGradient id="id3" gradientUnits="userSpaceOnUse" x1="376.333" y1="32.914" x2="327.423" y2="54.622">
   <stop offset="0" style="stop-color:#8BD1FF"/>
   <stop offset="1" style="stop-color:#0099FF"/>
  </linearGradient>
  <linearGradient id="id4" gradientUnits="userSpaceOnUse" xlink:href="#id3" x1="127.718" y1="32.914" x2="176.628" y2="54.622">
  </linearGradient>
  <linearGradient id="id5" gradientUnits="userSpaceOnUse" x1="393.567" y1="434.555" x2="417.167" y2="451.152">
   <stop offset="0" style="stop-color:#303030"/>
   <stop offset="0.478431" style="stop-color:#606060"/>
   <stop offset="1" style="stop-color:#303030"/>
  </linearGradient>
  <linearGradient id="id6" gradientUnits="userSpaceOnUse" xlink:href="#id5" x1="86.715" y1="434.555" x2="110.315" y2="451.152">
  </linearGradient>
  <linearGradient id="id7" gradientUnits="userSpaceOnUse" x1="324.417" y1="50.527" x2="388.043" y2="24.855">
   <stop offset="0" style="stop-color:#0083DB"/>
   <stop offset="1" style="stop-color:#2EACFF"/>
  </linearGradient>
  <linearGradient id="id8" gradientUnits="userSpaceOnUse" xlink:href="#id7" x1="179.636" y1="50.528" x2="116.008" y2="24.854">
  </linearGradient>
 </defs>
 <g id="Layer_x0020_1">
  <metadata id="CorelCorpID_0Corel-Layer"/>
  <path class="fil1" d="M103 401l-31 62c-2,3 -3,7 -2,11 1,7 12,11 17,5l36 -40c3,-4 5,-11 4,-15 -9,-7 -17,-15 -24,-23z"/>
  <circle class="fil2" cx="252" cy="268" r="200"/>
  <path class="fil3" d="M252 468c111,0 200,-89 200,-197 0,-1 0,-2 0,-3 -2,104 -90,188 -200,188 -109,0 -198,-84 -200,-188 0,1 0,2 0,3 0,108 90,197 200,197z"/>
  <circle class="fil4" cx="252" cy="268" r="159"/>
  <circle class="fil5" cx="252" cy="268" r="159"/>
  <path class="fil6 str1" d="M252 109c88,0 159,71 159,159l0 0c0,-85 -71,-154 -159,-154 -88,0 -159,69 -159,154l0 0c0,-88 71,-159 159,-159z"/>
  <path class="fil7" d="M252 68c111,0 200,89 200,200 0,1 0,2 0,3 -2,-106 -90,-192 -200,-192 -109,0 -198,86 -200,192 0,-1 0,-2 0,-3 0,-111 90,-200 200,-200z"/>
  <path class="fil8" d="M252 114c88,0 159,69 159,155 0,11 -1,23 -4,34 -16,-69 -79,-120 -155,-120 -76,0 -139,51 -155,120 -2,-11 -4,-23 -4,-34 0,-86 71,-155 159,-155z"/>
  <circle class="fil9 str2" cx="252" cy="268" r="200"/>
  <path class="fil10" d="M234 50l36 0c6,0 11,5 11,12l0 8c-9,-2 -19,-3 -29,-3 -10,0 -20,1 -29,3l0 -8c0,-7 5,-12 11,-12z"/>
  <path class="fil0" d="M252 427c88,0 159,-72 159,-159l0 -1c0,85 -71,154 -159,154 -88,0 -159,-69 -159,-154l0 1c0,87 71,159 159,159z"/>
  <path class="fil11" d="M118 25c-20,6 -38,16 -54,33 -16,18 -27,40 -14,60 3,5 6,11 10,16 45,-21 88,-46 127,-78 -3,-6 -6,-11 -9,-16 -13,-21 -37,-21 -60,-15z"/>
  <path class="fil12" d="M61 62c-14,16 -23,37 -11,56 3,5 6,11 10,16 31,-14 61,-31 89,-50l-9 -15c-12,-21 -37,-21 -60,-15 -6,2 -13,5 -19,8z"/>
  <path class="fil13" d="M86 40c-1,0 -2,1 -2,1 7,-4 15,-7 24,-9 24,-7 50,-7 63,15l9 15c1,-1 2,-2 4,-3l-10 -16c-13,-21 -38,-21 -62,-14 -9,2 -17,6 -26,11z"/>
  <path class="fil7" d="M56 128l4 6c45,-21 88,-46 127,-78l-3 -6c-39,32 -82,57 -128,78z"/>
  <path class="fil14" d="M255 179c5,13 9,28 9,44 0,16 -4,30 -9,43 0,1 -2,2 -3,2 -1,0 -2,-1 -3,-2 -5,-13 -8,-27 -8,-43 0,-16 3,-31 8,-44 1,0 2,-1 3,-1 1,0 3,1 3,1z"/>
  <path class="fil14" d="M335 353c-16,-9 -32,-21 -47,-36 -15,-15 -27,-31 -36,-46 -1,-1 -1,-3 0,-3 1,-1 2,-1 3,-1 16,9 32,22 47,37 15,15 27,31 36,46 1,1 0,2 0,3 -1,1 -2,1 -3,0z"/>
  <path class="fil15" d="M320 339c-6,-5 -12,-11 -18,-17 -7,-6 -12,-12 -17,-18 -1,-1 -1,-2 0,-3 1,-1 3,-1 4,0 6,4 12,10 18,16 6,6 11,12 16,18 1,1 1,3 0,4 -1,0 -2,0 -3,0z"/>
  <path class="fil15" d="M255 195c1,6 2,12 2,18 0,7 -1,13 -2,18 0,1 -1,2 -3,2 -1,0 -3,-1 -3,-2 -1,-5 -1,-11 -1,-18 0,-6 0,-12 1,-18 0,-1 2,-2 3,-2 2,0 3,1 3,2z"/>
  <circle class="fil10" cx="252" cy="268" r="18"/>
  <path class="fil16" d="M161 361c0,0 1,-1 1,-2 18,-19 36,-38 53,-56 10,-11 20,-21 31,-31 -3,-3 -3,-7 0,-10 3,-4 8,-4 11,-2 4,-4 9,-8 13,-12 2,-3 4,-1 2,2 -4,4 -9,8 -13,12 2,4 2,8 0,11 -3,3 -8,3 -11,1 -10,11 -20,21 -30,31 -18,19 -36,37 -55,55 0,1 -1,1 -2,1z"/>
  <path class="fil9 str3" d="M252 126l0 24m0 259l0 -24m-141 -117l23 0m259 0l-23 0m-47 -123l-12 21m-130 224l12 -20m-63 -173l20 12m224 129l-20 -11m20 -130l-20 12m-224 129l20 -11m31 -182l12 21m130 224l-12 -20"/>
  <path class="fil17" d="M387 25c19,6 37,16 53,33 16,18 27,40 14,60 -3,5 -6,11 -10,16 -45,-21 -88,-46 -127,-78 3,-6 6,-11 10,-16 12,-21 36,-21 60,-15z"/>
  <path class="fil18" d="M443 62c14,16 23,37 11,56 -3,5 -6,11 -10,16 -31,-14 -61,-31 -89,-50l9 -15c12,-21 37,-21 60,-15 6,2 13,5 19,8z"/>
  <path class="fil19" d="M418 40c1,0 2,1 3,1 -8,-4 -16,-7 -25,-9 -24,-7 -50,-7 -63,15l-9 15c-1,-1 -2,-2 -4,-3l10 -16c13,-21 38,-21 62,-14 9,2 17,6 26,11z"/>
  <path class="fil7" d="M448 128l-4 6c-45,-21 -88,-46 -127,-78l3 -6c39,32 82,57 128,78z"/>
  <path class="fil20" d="M401 401l31 62c2,3 3,7 2,11 -1,7 -12,11 -17,5l-36 -40c-3,-4 -5,-11 -4,-15 9,-7 17,-15 24,-23z"/>
 </g>
</svg>
